# xmcd
#
# Track frame offsets:
#	150
#	18592
#	38925
#
# Disc length: 676 seconds
#
# Revision: 0
# Processed by: cddbd v1.4PL0 Copyright (c) Steve Scherf et al.
# Submitted via: EasyCDDAExtractor 4.6.0.1
#
DISCID=1e02a203
DTITLE=Elvis Presley - Suspicious Minds
DYEAR=1900
DGENRE=
TTITLE0=Live - Radio Edit
TTITLE1=Studio Version
TTITLE2=The Wonder Of You
EXTD=
EXTT0=
EXTT1=
EXTT2=
PLAYORDER=
